# xmcd
#
# Track frame offsets:
#	150
#	16864
#	32236
#	47908
#	59226
#	73916
#	97848
#	112638
#	122727
#	145265
#	157547
#	168498
#	180604
#
# Disc length: 2589 seconds
#
# Revision: 4
# Processed by: cddbd v1.5.2PL0 Copyright (c) Steve Scherf et al.
# Submitted via: EasyCDDAExtractor 16.0.8.2
#
DISCID=a90a1b0d
DTITLE=Emilia Ottaviano - La donna e la luna
DYEAR=2002
DGENRE=Ποικίλη
TTITLE0=Emilia Ottaviano - Maruzzella
TTITLE1=Θηβαίος Χρήστος-Emilia Ottaviano - Angelo che me l' hai ferito l' core
TTITLE1=[Ν. Ιταλία, δ. Κ. Βόμβολος]
TTITLE2=Emilia Ottaviano - El cosechero
TTITLE3=Emilia Ottaviano - E' ou nao e?
TTITLE4=Emilia Ottaviano - Tonada de la luna llena
TTITLE5=Emilia Ottaviano - Tarantella del Gargano [παρ. Ν. Ιταλίας, διασκ. Κ. 
TTITLE5=Βόμβολος]
TTITLE6=Emilia Ottaviano - Torna Maggio
TTITLE7=Emilia Ottaviano - Την καρδιά μ' την κλειδωμένη [παρ. Ανατ. Ρωμυλίας]
TTITLE8=Μπακιρτζής Αργύρης-Emilia Ottaviano - Andrea [διασκ. Κ. Βόμβολος]
TTITLE9=Emilia Ottaviano - A vucchella
TTITLE10=Emilia Ottaviano - Τρεις λυγερές [παρ. Θράκης, διασκ. Κ. Βόμβολος]
TTITLE11=Δημοσθένους Δώρος-Emilia Ottaviano - Ασερομπάζω κι έρχομαι [παραδ. Κύ
TTITLE11=πρου, δ. Κ. Βόμβολος]
TTITLE12=Emilia Ottaviano-Παρίσης Κώστας - Tonada de las espigas (Κώστας Παρίσ
TTITLE12=ης)
EXTD=
EXTT0=
EXTT1=
EXTT2=
EXTT3=
EXTT4=
EXTT5=
EXTT6=
EXTT7=
EXTT8=
EXTT9=
EXTT10=
EXTT11=
EXTT12=
PLAYORDER=
